HIERARCHY
ROOT Hips
{
	OFFSET 50.979198 -5.771154 86.853996
	CHANNELS 6 Xposition Yposition Zposition Xrotation Yrotation Zrotation
	JOINT spine
	{
		OFFSET 0.000000 -0.393701 6.846367
		CHANNELS 3 Xrotation Yrotation Zrotation
		JOINT spine1
		{
			OFFSET 0.000000 -0.000001 9.496208
			CHANNELS 3 Xrotation Yrotation Zrotation
			JOINT spine2
			{
				OFFSET 0.000000 -0.000001 9.099091
				CHANNELS 3 Xrotation Yrotation Zrotation
				JOINT Neck
				{
					OFFSET 0.000000 -1.113784 23.361198
					CHANNELS 3 Xrotation Yrotation Zrotation
					JOINT Head
					{
						OFFSET 0.000000 -0.000001 7.058014
						CHANNELS 3 Xrotation Yrotation Zrotation
						End Site
						{
							OFFSET 0.000000 5.634188 17.084396
						}
					}
				}
				JOINT RightShoulder
				{
					OFFSET -3.831360 0.533489 9.826309
					CHANNELS 3 Xrotation Yrotation Zrotation
					JOINT RightArm
					{
						OFFSET 0.000000 -0.000002 12.888100
						CHANNELS 3 Xrotation Yrotation Zrotation
						JOINT RightArmRoll
						{
							OFFSET 0.000000 -0.000001 6.506165
							CHANNELS 3 Xrotation Yrotation Zrotation
							JOINT RightForeArm
							{
								OFFSET 0.000000 -0.000003 18.950104
								CHANNELS 3 Xrotation Yrotation Zrotation
								JOINT RightForeArmRoll
								{
									OFFSET 0.000000 -0.000001 7.300919
									CHANNELS 3 Xrotation Yrotation Zrotation
									JOINT RightHand
									{
										OFFSET 0.000000 -0.000002 14.651398
										CHANNELS 3 Xrotation Yrotation Zrotation
										End Site
										{
											OFFSET 0.000000 0.000000 0.100006
										}
									}
								}
							}
						}
					}
				}
				JOINT LeftShoulder
				{
					OFFSET 3.831360 0.533489 9.826309
					CHANNELS 3 Xrotation Yrotation Zrotation
					JOINT LeftArm
					{
						OFFSET 0.000000 -0.000002 12.888100
						CHANNELS 3 Xrotation Yrotation Zrotation
						JOINT LeftArmRoll
						{
							OFFSET 0.000000 -0.000001 6.506165
							CHANNELS 3 Xrotation Yrotation Zrotation
							JOINT LeftForeArm
							{
								OFFSET 0.000000 -0.000003 18.950104
								CHANNELS 3 Xrotation Yrotation Zrotation
								JOINT LeftForeArmRoll
								{
									OFFSET 0.000000 -0.000001 7.300934
									CHANNELS 3 Xrotation Yrotation Zrotation
									JOINT LeftHand
									{
										OFFSET 0.000000 -0.000002 14.651398
										CHANNELS 3 Xrotation Yrotation Zrotation
										End Site
										{
											OFFSET 0.000000 0.000000 0.100006
										}
									}
								}
							}
						}
					}
				}
			}
		}
	}
	JOINT RightUpLeg
	{
		OFFSET -6.068371 0.933477 -1.112778
		CHANNELS 3 Xrotation Yrotation Zrotation
		JOINT RightUpLegRoll
		{
			OFFSET 0.000000 -0.000003 17.179604
			CHANNELS 3 Xrotation Yrotation Zrotation
			JOINT RightLeg
			{
				OFFSET 0.000000 0.000003 -21.274300
				CHANNELS 3 Xrotation Yrotation Zrotation
				JOINT RightLegRoll
				{
					OFFSET 0.000000 -0.000003 21.343903
					CHANNELS 3 Xrotation Yrotation Zrotation
					JOINT RightFoot
					{
						OFFSET 0.000000 -0.000003 17.765198
						CHANNELS 3 Xrotation Yrotation Zrotation
						JOINT RightToeBase
						{
							OFFSET 0.000000 -0.000002 14.850792
							CHANNELS 3 Xrotation Yrotation Zrotation
							End Site
							{
								OFFSET 0.006294 0.829003 7.192123
							}
						}
					}
				}
			}
		}
	}
	JOINT LeftUpLeg
	{
		OFFSET 6.068371 0.933477 -1.112778
		CHANNELS 3 Xrotation Yrotation Zrotation
		JOINT LeftUpLegRoll
		{
			OFFSET 0.000000 -0.000003 17.179703
			CHANNELS 3 Xrotation Yrotation Zrotation
			JOINT LeftLeg
			{
				OFFSET 0.000000 -0.000003 21.274200
				CHANNELS 3 Xrotation Yrotation Zrotation
				JOINT LeftLegRoll
				{
					OFFSET 0.000000 -0.000004 21.541206
					CHANNELS 3 Xrotation Yrotation Zrotation
					JOINT LeftFoot
					{
						OFFSET 0.000000 -0.000003 17.567902
						CHANNELS 3 Xrotation Yrotation Zrotation
						JOINT LeftToeBase
						{
							OFFSET 0.000000 -0.000002 14.850800
							CHANNELS 3 Xrotation Yrotation Zrotation
							End Site
							{
								OFFSET -0.028210 0.829003 7.192139
							}
						}
					}
				}
			}
		}
	}
}
MOTION
Frames: 9
Frame Time: 0.041667
49.441399 -3.119375 86.609398 -2.439798 -2.624403 11.176116 0.526730 -2.336702 0.612980 5.085394 -4.659856 1.259633 6.732581 -4.644454 1.315473 30.017483 43.486728 -10.544486 19.164442 -25.361665 -0.604896 0.446254 -20.289538 7.065957 -83.379917 -155.108473 -65.181001 -0.000000 -0.000001 -0.000004 20.607661 -9.315261 0.809536 -0.000001 0.000001 -3.005875 -5.000217 -7.999192 0.000116 -35.663560 66.677912 41.302581 -119.804223 102.240139 164.227117 0.000001 0.000014 0.000001 95.440597 -15.968692 19.620468 0.000006 -0.000006 3.001584 -5.000212 7.999000 -0.000133 -13.251336 -178.069753 -0.653991 -179.999991 0.000005 -1.290997 154.396194 -4.287209 -1.305641 -0.000002 0.000002 0.715858 74.367489 7.958698 -1.489065 25.456955 -7.355613 0.000010 -12.283384 180.046901 3.731716 -0.000005 -0.000005 -0.928484 -21.536020 -0.516414 0.949427 0.000001 0.000000 -0.430621 70.539796 -5.351951 -6.169768 25.456962 7.355615 -0.000002 
49.453999 -3.123494 86.609802 -2.457381 -2.635637 11.080230 0.517985 -2.327286 0.619376 5.068040 -4.640995 1.273455 6.715211 -4.625431 1.329069 29.999147 43.261110 -10.493040 19.046415 -25.169558 -0.658722 0.395482 -20.575055 6.924197 -83.173420 -154.939904 -65.446886 -0.000000 0.000000 0.000000 20.946524 -9.412819 0.866083 -0.000002 0.000003 -3.005858 -5.000215 -7.999192 0.000116 -35.296867 66.570063 40.900190 -117.921208 102.737581 162.183812 0.000001 0.000013 0.000000 95.068153 -15.773168 19.186700 0.000003 -0.000006 3.001580 -5.000213 7.999003 -0.000135 -13.239315 -178.046284 -0.651135 -179.999991 0.000005 -1.289002 154.393120 -4.275357 -1.306262 -0.000002 0.000002 0.715872 74.364067 7.951851 -1.467968 25.456959 -7.355614 0.000010 -12.239188 180.064509 3.723667 -0.000004 -0.000005 -0.930180 -21.540682 -0.504393 0.949924 0.000001 0.000001 -0.431868 70.573756 -5.359681 -6.150162 25.456959 7.355615 -0.000001 
49.471096 -3.133616 86.613197 -2.475250 -2.646622 10.984233 0.509390 -2.318048 0.625624 5.050982 -4.622490 1.287035 6.698128 -4.606759 1.342426 29.979544 43.036930 -10.440901 18.929548 -24.976596 -0.711705 0.342268 -20.858868 6.779721 -82.966076 -154.770283 -65.715538 -0.000002 0.000001 -0.000003 21.286092 -9.507228 0.923851 -0.000000 0.000000 -3.005841 -5.000216 -7.999192 0.000113 -34.933324 66.462412 40.500771 -116.162393 103.254080 160.255089 0.000003 0.000014 -0.000001 94.692261 -15.570297 18.748970 0.000003 -0.000007 3.001575 -5.000213 7.999001 -0.000137 -13.227001 -178.022829 -0.648223 -179.999991 0.000005 -1.288005 154.390019 -4.263504 -1.305887 -0.000003 0.000002 0.715864 74.360570 7.945046 -1.446960 25.456959 -7.355615 0.000010 -12.194894 180.082131 3.715365 -0.000004 -0.000005 -0.931881 -21.545535 -0.492319 0.950401 0.000001 0.000001 -0.433129 70.607839 -5.367466 -6.130352 25.456959 7.355614 -0.000001 
49.492100 -3.141914 86.612206 -2.492922 -2.656647 10.888179 0.500804 -2.309053 0.631656 5.033928 -4.604479 1.300180 6.681052 -4.588592 1.355352 29.958787 42.814112 -10.388176 18.814215 -24.782932 -0.763496 0.286962 -21.140962 6.633088 -82.757919 -154.599679 -65.986068 -0.000000 0.000000 0.000000 21.626344 -9.598152 0.982795 -0.000000 0.000000 -3.005831 -5.000218 -7.999194 0.000118 -34.573024 66.354728 40.104521 -114.517008 103.786773 158.429216 0.000001 0.000012 0.000000 94.313424 -15.360505 18.306953 0.000004 -0.000008 3.001568 -5.000213 7.999000 -0.000135 -13.214773 -178.000344 -0.645598 -179.999991 0.000005 -1.285997 154.387629 -4.251691 -1.305466 -0.000002 0.000002 0.715824 74.356731 7.938267 -1.425925 25.456957 -7.355613 0.000010 -12.151500 180.098756 3.706639 -0.000005 -0.000005 -0.933564 -21.551296 -0.480248 0.950891 0.000001 0.000001 -0.434419 70.642242 -5.375259 -6.110525 25.456959 7.355613 -0.000001 
49.529999 -3.157324 86.621101 -2.509895 -2.665005 10.792225 0.492076 -2.300375 0.637395 5.016591 -4.587117 1.312696 6.663702 -4.571084 1.367661 29.936593 42.592664 -10.334345 18.700884 -24.588891 -0.813690 0.229929 -21.421345 6.484884 -82.549017 -154.428200 -66.257684 0.000002 -0.000000 -0.000000 21.967341 -9.685318 1.042915 -0.000001 0.000002 -3.005808 -5.000217 -7.999194 0.000118 -34.215918 66.246428 39.711393 -112.974505 104.332915 156.694635 0.000004 0.000012 -0.000001 93.933201 -15.143836 17.864541 0.000004 -0.000006 3.001565 -5.000212 7.998998 -0.000133 -13.203037 -177.979799 -0.643605 -179.999991 0.000005 -1.284999 154.386044 -4.239892 -1.305986 -0.000003 0.000002 0.715739 74.352422 7.931625 -1.405335 25.456953 -7.355613 0.000010 -12.109905 180.114411 3.697093 -0.000002 -0.000005 -0.935192 -21.558462 -0.468227 0.951412 0.000001 0.000001 -0.435748 70.677076 -5.383026 -6.090767 25.456957 7.355617 -0.000002 
49.549702 -3.178023 86.624199 -2.525675 -2.670996 10.696524 0.483068 -2.292099 0.642767 4.998687 -4.570565 1.324395 6.645770 -4.554393 1.379157 29.912875 42.372697 -10.279106 18.589955 -24.394929 -0.861838 0.171514 -21.700020 6.335679 -82.339372 -154.255793 -66.529540 0.000000 -0.000002 -0.000001 22.309133 -9.768260 1.104137 -0.000001 0.000003 -3.005800 -5.000215 -7.999197 0.000116 -33.861961 66.136974 39.321341 -111.524667 104.889904 155.039557 0.000001 0.000013 0.000002 93.552036 -14.920767 17.421285 0.000004 -0.000007 3.001561 -5.000214 7.999002 -0.000136 -13.192283 -177.961221 -0.642809 -179.999991 0.000005 -1.284003 154.385949 -4.229059 -1.305824 -0.000003 0.000002 0.715601 74.347388 7.925132 -1.384977 25.456953 -7.355614 0.000010 -12.071212 180.127128 3.686753 -0.000004 -0.000005 -0.936740 -21.567622 -0.456309 0.951985 0.000001 0.000000 -0.437127 70.712518 -5.390718 -6.071266 25.456957 7.355615 -0.000001 
49.570000 -3.186253 86.626099 -2.539756 -2.673925 10.601037 0.473634 -2.284282 0.647699 4.979908 -4.554964 1.335079 6.626985 -4.538672 1.389656 29.887450 42.154350 -10.222180 18.481896 -24.201268 -0.907599 0.112092 -21.977168 6.186069 -82.129480 -154.082292 -66.801975 -0.000001 -0.000002 -0.000002 22.651890 -9.846687 1.166433 -0.000001 -0.000000 -3.005789 -5.000217 -7.999193 0.000116 -33.510984 66.026045 38.934264 -110.157052 105.455238 153.452303 0.000003 0.000007 -0.000001 93.170358 -14.691790 16.976912 0.000003 -0.000007 3.001562 -5.000213 7.998999 -0.000138 -13.183010 -177.945552 -0.643569 -179.999991 0.000005 -1.283004 154.387520 -4.218275 -1.305529 -0.000004 0.000002 0.715393 74.341364 7.918885 -1.365215 25.456952 -7.355613 0.000010 -12.036415 180.136937 3.675243 -0.000004 -0.000005 -0.938177 -21.579283 -0.444545 0.952629 0.000001 0.000001 -0.438572 70.748793 -5.398313 -6.051897 25.456962 7.355616 -0.000000 
49.588100 -3.202324 86.624298 -2.551648 -2.673091 10.506119 0.463635 -2.277016 0.652118 4.959986 -4.540476 1.344565 6.607038 -4.524062 1.398963 29.860337 41.937426 -10.163438 18.377042 -24.008187 -0.950625 0.052021 -22.252794 6.036651 -81.918482 -153.908150 -67.072061 -0.000002 -0.000001 0.000001 22.995480 -9.920356 1.229771 -0.000001 0.000002 -3.005770 -5.000218 -7.999197 0.000118 -33.163014 65.913115 38.550219 -108.862765 106.026550 151.922586 0.000006 0.000009 0.000000 92.789643 -14.457248 16.535301 0.000005 -0.000006 3.001557 -5.000212 7.999002 -0.000138 -13.175593 -177.934774 -0.645994 -179.999991 0.000005 -1.281993 154.391276 -4.208477 -1.305514 -0.000003 0.000002 0.715110 74.334137 7.912921 -1.346028 25.456959 -7.355613 0.000010 -12.006620 180.142811 3.662370 -0.000003 -0.000005 -0.939472 -21.594154 -0.432983 0.953361 0.000001 0.000001 -0.440095 70.785984 -5.405778 -6.032859 25.456959 7.355614 -0.000001 
49.603401 -3.211162 86.626900 -2.560860 -2.667817 10.411724 0.452925 -2.270359 0.655948 4.938617 -4.527240 1.352654 6.585660 -4.510735 1.406891 29.831350 41.722057 -10.102511 18.275785 -23.816219 -0.990502 -0.008325 -22.526903 5.888032 -81.706889 -153.733310 -67.340208 0.000001 -0.000001 0.000000 23.340047 -9.988887 1.294074 -0.000003 0.000000 -3.005762 -5.000216 -7.999195 0.000118 -32.818253 65.797678 38.169406 -107.632976 106.601747 150.439862 0.000000 0.000008 0.000002 92.410294 -14.217589 16.096142 0.000004 -0.000007 3.001549 -5.000212 7.999002 -0.000137 -13.170442 -177.928900 -0.650664 -179.999991 0.000005 -1.280996 154.397628 -4.198772 -1.304311 -0.000004 0.000002 0.714736 74.325490 7.907266 -1.327603 25.456957 -7.355613 0.000010 -11.982719 180.143794 3.647951 -0.000004 -0.000005 -0.940598 -21.612716 -0.421678 0.954229 0.000001 0.000001 -0.441706 70.824089 -5.413115 -6.014350 25.456959 7.355613 -0.000001 
